<?xml version="1.0" encoding="UTF-8" standalone="no"?>
<!-- Created with Inkscape (http://www.inkscape.org/) -->

<svg
   width="256"
   height="128"
   viewBox="0 0 67.733332 33.866666"
   version="1.1"
   id="svg1"
   xml:space="preserve"
   inkscape:version="1.3 (0e150ed6c4, 2023-07-21)"
   sodipodi:docname="marcalight.svg"
   inkscape:export-filename="logo.png"
   inkscape:export-xdpi="192.75294"
   inkscape:export-ydpi="192.75294"
   xmlns:inkscape="http://www.inkscape.org/namespaces/inkscape"
   xmlns:sodipodi="http://sodipodi.sourceforge.net/DTD/sodipodi-0.dtd"
   xmlns="http://www.w3.org/2000/svg"
   xmlns:svg="http://www.w3.org/2000/svg"><sodipodi:namedview
     id="namedview1"
     pagecolor="#ffffff"
     bordercolor="#000000"
     borderopacity="0.25"
     inkscape:showpageshadow="2"
     inkscape:pageopacity="0.0"
     inkscape:pagecheckerboard="0"
     inkscape:deskcolor="#d1d1d1"
     inkscape:document-units="px"
     inkscape:clip-to-page="true"
     inkscape:zoom="1.4142136"
     inkscape:cx="96.16652"
     inkscape:cy="66.114482"
     inkscape:window-width="1366"
     inkscape:window-height="705"
     inkscape:window-x="-8"
     inkscape:window-y="-8"
     inkscape:window-maximized="1"
     inkscape:current-layer="g8"
     showgrid="false"
     showguides="true"><inkscape:grid
       id="grid1"
       units="px"
       originx="0"
       originy="0"
       spacingx="0.26458333"
       spacingy="0.26458333"
       empcolor="#0099e5"
       empopacity="0.30196078"
       color="#0099e5"
       opacity="0.14901961"
       empspacing="5"
       dotted="false"
       gridanglex="30"
       gridanglez="30"
       visible="false" /><sodipodi:guide
       position="34.395831,-11.112496"
       orientation="1,0"
       id="guide1"
       inkscape:locked="false" /><sodipodi:guide
       position="100.54166,-11.112496"
       orientation="1,0"
       id="guide2"
       inkscape:locked="false" /><sodipodi:guide
       position="58.208329,-11.112496"
       orientation="0,-1"
       id="guide3"
       inkscape:locked="false" /><sodipodi:guide
       position="47.624996,-77.258328"
       orientation="0,-1"
       id="guide4"
       inkscape:locked="false" /></sodipodi:namedview><defs
     id="defs1" /><g
     inkscape:label="Camada 1"
     inkscape:groupmode="layer"
     id="layer1"><g
       id="g8"
       transform="matrix(0.56736429,0,0,0.5992627,-13.320888,-22.345262)"
       style="stroke-width:1.715"><path
         style="fill:#6681a2;fill-opacity:1;stroke:#040d07;stroke-width:0.45375649;stroke-dasharray:none;stroke-opacity:0"
         d="M 27.411733,74.809707 C 127.43011,88.972083 193.84856,51.027605 91.09531,85.231076 -11.657947,119.43452 33.662879,37.39966 33.662879,37.39966"
         id="path6" /><g
         id="g9"
         style="fill:#f1f0f0;fill-opacity:1;stroke:#1044fd;stroke-width:0.08167617;stroke-dasharray:none;stroke-opacity:1"><path
           d="m 42.818875,49.750658 c -2.464939,0.316532 -4.889247,1.413085 -6.216522,2.803561 l -0.419852,0.429578 1.814845,0.972202 1.814845,0.960898 0.568832,-0.486101 c 1.056403,-0.904374 2.668093,-1.367866 4.401677,-1.277429 2.248241,0.124352 3.385905,1.266124 2.911878,2.916608 -0.311503,1.096554 -0.961597,1.707006 -5.877931,5.584512 l -4.699636,3.707935 0.04063,1.322647 0.04063,1.311343 8.166803,0.03391 8.15326,0.02261 V 66.35723 64.661528 h -4.604831 c -2.532657,0 -4.604831,-0.03391 -4.604831,-0.06783 0,-0.03391 0.623007,-0.553929 1.394993,-1.153077 4.889247,-3.843591 6.162347,-5.053192 6.704092,-6.409754 1.300187,-3.255747 -0.555289,-6.104527 -4.577744,-7.065425 -1.191838,-0.282617 -3.656777,-0.384359 -5.011139,-0.214789 z"
           id="path1"
           style="fill:#f1f0f0;fill-opacity:1;stroke:#1044fd;stroke-width:0.08167617;stroke-dasharray:none;stroke-opacity:1" /><path
           d="m 57.039676,58.997887 v 9.055048 h 4.780898 c 7.083313,0 8.68146,-0.180874 11.322466,-1.266124 1.151208,-0.474796 1.584604,-0.734804 2.519113,-1.492218 2.234698,-1.842662 3.155664,-3.900114 3.006684,-6.760198 -0.108349,-2.170499 -0.717812,-3.606193 -2.194067,-5.154934 -0.961597,-0.994812 -2.045086,-1.695702 -3.656777,-2.340069 -2.451395,-0.972202 -2.681637,-1.006117 -9.643057,-1.051335 l -6.13526,-0.03391 z m 12.12154,-5.301895 c 1.205382,0.316531 1.950281,0.689585 2.708724,1.322647 1.164751,0.972203 1.652321,1.95571 1.774214,3.594889 0.230241,2.893998 -1.611691,5.053192 -4.902791,5.765386 -0.595919,0.124352 -1.557516,0.169571 -3.805757,0.169571 h -3.020227 v -5.516684 c 0,-3.040959 0.04063,-5.561903 0.108349,-5.607122 0.05417,-0.05652 1.462711,-0.06783 3.14212,-0.03391 2.681637,0.04522 3.155663,0.07913 3.995368,0.305227 z"
           id="path2"
           style="fill:#f1f0f0;fill-opacity:1;stroke:#1044fd;stroke-width:0.08167617;stroke-dasharray:none;stroke-opacity:1" /><path
           d="m 87.986847,54.091656 c -3.385904,0.520015 -5.891474,2.430506 -6.704091,5.09841 -0.528202,1.718312 -0.257329,3.753154 0.704268,5.279286 0.663637,1.06264 2.112805,2.204412 3.507797,2.780951 1.611691,0.655672 2.478483,0.825242 4.591288,0.881765 2.166979,0.06783 3.358817,-0.101742 4.807985,-0.678281 0.920966,-0.373054 2.370133,-1.23221 2.370133,-1.413085 0,-0.05652 -0.555288,-0.610452 -1.232469,-1.243514 l -1.246013,-1.141773 -0.514658,0.327836 c -0.270872,0.192179 -0.866792,0.486101 -1.300187,0.655671 -0.717812,0.271312 -0.93451,0.305226 -2.343047,0.305226 -1.42208,0 -1.625234,-0.02261 -2.370133,-0.316531 -0.988684,-0.384359 -1.611691,-0.87046 -2.045087,-1.57135 -0.582375,-0.949593 -1.097033,-0.870461 5.945649,-0.904375 l 6.257153,-0.03391 -0.01354,-1.300038 C 98.374805,58.794406 97.711171,57.336103 96.207829,56.036065 94.284635,54.362972 91.08834,53.605558 87.986851,54.09166 Z m 3.887019,3.244443 c 1.08349,0.542624 2.004456,1.59396 2.004456,2.306154 v 0.271313 h -4.076629 -4.07663 l 0.09481,-0.373055 c 0.284416,-1.085249 1.42208,-2.091365 2.776442,-2.46442 0.189611,-0.05652 0.866792,-0.07913 1.503342,-0.06783 0.961597,0.03391 1.259557,0.07913 1.774214,0.327836 z"
           id="path3"
           style="fill:#f1f0f0;fill-opacity:1;stroke:#1044fd;stroke-width:0.08167617;stroke-dasharray:none;stroke-opacity:1" /><path
           d="m 124.82549,54.035132 c -2.50557,0.305227 -4.37459,1.23221 -5.29555,2.622686 -0.36568,0.553929 -0.39277,0.689585 -0.39277,1.786139 0,1.107859 0.0271,1.232211 0.39277,1.78614 0.86679,1.300038 2.20761,1.831358 5.94565,2.340069 2.47848,0.33914 3.02022,0.474796 3.35881,0.825241 0.35214,0.384359 0.32505,0.734804 -0.0948,1.141773 -0.44694,0.452187 -1.16475,0.610453 -2.7629,0.599148 -1.85548,-0.01131 -4.23915,-0.497406 -5.34973,-1.107859 -0.18961,-0.101742 -0.36568,-0.16957 -0.39276,-0.146961 -0.1219,0.135657 -1.58461,2.837475 -1.54398,2.871389 0.20316,0.158266 1.59815,0.644367 2.49203,0.881765 1.5846,0.418273 3.19629,0.565234 5.33619,0.497406 2.72226,-0.07913 4.52356,-0.599148 5.76958,-1.639178 2.00445,-1.661788 1.81484,-4.397521 -0.37922,-5.607122 -1.00223,-0.553929 -1.99092,-0.813937 -4.59129,-1.198296 -1.24601,-0.180875 -2.43785,-0.395664 -2.64101,-0.463492 -1.4898,-0.463492 -1.25955,-1.774834 0.36568,-2.136584 1.43562,-0.327836 4.79444,0.05652 6.04046,0.689585 l 0.41985,0.226094 0.69072,-1.220906 c 0.98869,-1.729616 0.98869,-1.639178 0.0542,-1.989623 -1.8013,-0.678281 -5.25493,-1.028726 -7.42191,-0.757414 z"
           id="path4"
           style="fill:#f1f0f0;fill-opacity:1;stroke:#1044fd;stroke-width:0.08167617;stroke-dasharray:none;stroke-opacity:1" /><path
           d="m 99.498924,54.566452 c 0.121893,0.237398 1.692956,3.368795 3.494256,6.963683 l 3.27755,6.5228 2.47849,-0.02261 2.47848,-0.03391 3.49425,-6.918464 3.5078,-6.929769 h -2.3295 l -2.31596,0.01131 -2.37014,4.702747 -2.35659,4.714051 -0.24378,-0.452187 c -0.12189,-0.237398 -1.16475,-2.362678 -2.30242,-4.702747 l -2.07217,-4.273169 h -2.47848 -2.46494 z"
           id="path5"
           style="fill:#f1f0f0;fill-opacity:1;stroke:#1044fd;stroke-width:0.08167617;stroke-dasharray:none;stroke-opacity:1" /></g></g></g></svg>
