<?xml version="1.0" standalone="no"?>
<!DOCTYPE svg PUBLIC "-//W3C//DTD SVG 20010904//EN"
 "http://www.w3.org/TR/2001/REC-SVG-20010904/DTD/svg10.dtd">
<svg version="1.0" xmlns="http://www.w3.org/2000/svg"
 width="720.000000pt" height="165.000000pt" viewBox="0 0 720.000000 165.000000"
 preserveAspectRatio="xMidYMid meet">

<g transform="translate(0.000000,165.000000) scale(0.100000,-0.100000)"
fill="#000000" stroke="none">
<path d="M490 1639 c-182 -28 -361 -125 -459 -248 l-31 -38 134 -86 134 -85
42 43 c78 80 197 121 325 113 166 -11 250 -112 215 -258 -23 -97 -71 -151
-434 -494 l-347 -328 3 -117 3 -116 603 -3 602 -2 0 150 0 150 -340 0 c-187 0
-340 3 -340 6 0 3 46 49 103 102 361 340 455 447 495 567 96 288 -41 540 -338
625 -88 25 -270 34 -370 19z"/>
<path d="M1540 821 l0 -801 353 0 c523 0 641 16 836 112 85 42 117 65 186 132
165 163 233 345 222 598 -8 192 -53 319 -162 456 -71 88 -151 150 -270 207
-181 86 -198 89 -712 93 l-453 3 0 -800z m895 469 c89 -28 144 -61 200 -117
86 -86 122 -173 131 -318 17 -256 -119 -447 -362 -510 -44 -11 -115 -15 -281
-15 l-223 0 0 488 c0 269 3 492 8 496 4 5 108 6 232 3 198 -4 233 -7 295 -27z"/>
<path d="M3825 1255 c-250 -46 -435 -215 -495 -451 -39 -152 -19 -332 52 -467
49 -94 156 -195 259 -246 119 -58 183 -73 339 -78 160 -6 248 9 355 60 68 33
175 109 175 125 0 5 -41 54 -91 110 l-92 101 -38 -29 c-20 -17 -64 -43 -96
-58 -53 -24 -69 -27 -173 -27 -105 0 -120 2 -175 28 -73 34 -119 77 -151 139
-43 84 -81 77 439 80 l462 3 -1 115 c-2 179 -51 308 -162 423 -142 148 -378
215 -607 172z m287 -287 c80 -48 148 -141 148 -204 l0 -24 -301 0 -301 0 7 33
c21 96 105 185 205 218 14 5 64 7 111 6 71 -3 93 -7 131 -29z"/>
<path d="M6545 1260 c-185 -27 -323 -109 -391 -232 -27 -49 -29 -61 -29 -158
0 -98 2 -109 29 -158 64 -115 163 -162 439 -207 183 -30 223 -42 248 -73 26
-34 24 -65 -7 -101 -33 -40 -86 -54 -204 -53 -137 1 -313 44 -395 98 -14 9
-27 15 -29 13 -9 -12 -117 -251 -114 -254 15 -14 118 -57 184 -78 117 -37 236
-50 394 -44 201 7 334 53 426 145 148 147 134 389 -28 496 -74 49 -147 72
-339 106 -92 16 -180 35 -195 41 -110 41 -93 157 27 189 106 29 354 -5 446
-61 l31 -20 51 108 c73 153 73 145 4 176 -133 60 -388 91 -548 67z"/>
<path d="M4675 1213 c9 -21 125 -298 258 -616 l242 -577 183 2 183 3 258 612
259 613 -172 0 -171 -1 -175 -416 -174 -417 -18 40 c-9 21 -86 209 -170 416
l-153 378 -183 0 -182 0 15 -37z"/>
</g>
</svg>
